<?xml version="1.0" encoding="utf-8"?>
<!-- Generator: Adobe Illustrator 18.1.0, SVG Export Plug-In . SVG Version: 6.00 Build 0)  -->
<svg version="1.0" id="_x30_" xmlns="http://www.w3.org/2000/svg" xmlns:xlink="http://www.w3.org/1999/xlink" x="0px" y="0px"
	 viewBox="0 0 1040 685" enable-background="new 0 0 1040 685" xml:space="preserve">
<g id="LWPOLYLINE">
	
		<rect x="351.5" y="161.5" fill="none" stroke="#000000" stroke-width="0.7087" stroke-linecap="round" stroke-linejoin="round" stroke-miterlimit="10" width="337" height="360"/>
</g>
<g id="LWPOLYLINE_1_">
	
		<path fill="none" stroke="#000000" stroke-width="0.7087" stroke-linecap="round" stroke-linejoin="round" stroke-miterlimit="10" d="
		M650,184.9H390c-5.5,0-10,4.5-10,10v290.4c0,5.5,4.5,10,10,10h260c5.5,0,10-4.5,10-10V194.9C660,189.4,655.5,184.9,650,184.9z"/>
</g>
<g id="LWPOLYLINE_2_">
	
		<path fill="none" stroke="#000000" stroke-width="0.7087" stroke-linecap="round" stroke-linejoin="round" stroke-miterlimit="10" d="
		M384,194.9c0-3.3,2.7-6,6-6h260c3.3,0,6,2.7,6,6v290.4c0,3.3-2.7,6-6,6H390c-3.3,0-6-2.7-6-6V194.9z"/>
</g>
</svg>
