<?xml version="1.0" encoding="utf-8"?>
<!-- Generator: Adobe Illustrator 18.1.0, SVG Export Plug-In . SVG Version: 6.00 Build 0)  -->
<svg version="1.0" id="_x30_" xmlns="http://www.w3.org/2000/svg" xmlns:xlink="http://www.w3.org/1999/xlink" x="0px" y="0px"
	 viewBox="0 0 1040 685" enable-background="new 0 0 1040 685" xml:space="preserve">
<g id="LWPOLYLINE">
	
		<rect x="351.5" y="241.5" fill="none" stroke="#000000" stroke-width="0.7087" stroke-linecap="round" stroke-linejoin="round" stroke-miterlimit="10" width="337" height="200"/>
</g>
<g id="CIRCLE_3_">
	
		<path fill="none" stroke="#000000" stroke-width="0.7087" stroke-linecap="round" stroke-linejoin="round" stroke-miterlimit="10" d="
		M508,341.5c0-6.6,5.4-12,12-12s12,5.4,12,12s-5.4,12-12,12S508,348.1,508,341.5L508,341.5z"/>
</g>
<g id="CIRCLE_4_">
	
		<path fill="none" stroke="#000000" stroke-width="0.7087" stroke-linecap="round" stroke-linejoin="round" stroke-miterlimit="10" d="
		M415.4,375c0-6.6,5.4-12,12-12s12,5.4,12,12s-5.4,12-12,12S415.4,381.6,415.4,375L415.4,375z"/>
</g>
<g id="CIRCLE_5_">
	
		<path fill="none" stroke="#000000" stroke-width="0.7087" stroke-linecap="round" stroke-linejoin="round" stroke-miterlimit="10" d="
		M600.6,375c0-6.6,5.4-12,12-12s12,5.4,12,12s-5.4,12-12,12S600.6,381.6,600.6,375L600.6,375z"/>
</g>
</svg>
