<?xml version="1.0" encoding="UTF-8" standalone="yes"?>
<!-- Created with sK1/UniConvertor (http://sk1project.org/) -->
<svg xmlns="http://www.w3.org/2000/svg" xmlns:xlink="http://www.w3.org/1999/xlink"
  width="595.276pt" height="841.89pt" viewBox="0 0 595.276 841.89"
  fill-rule="evenodd">
<g>
<path style="stroke:#000000; stroke-width:0.850394; stroke-linejoin:round; stroke-linecap:round; fill:none" d="M 2.21333e-13 336.89L 0 836.89"/>
<path style="stroke:#000000; stroke-width:0.850394; stroke-linejoin:round; stroke-linecap:round; fill:none" d="M -500 336.89L 2.21333e-13 336.89"/>
<path style="stroke:#000000; stroke-width:0.850394; stroke-linejoin:round; stroke-linecap:round; fill:none" d="M -45.7951 836.89L -489.912 836.89"/>
<path style="stroke:#000000; stroke-width:0.850394; stroke-linejoin:round; stroke-linecap:round; fill:none" d="M -500 836.89L -500 336.89"/>
<path style="stroke:#000000; stroke-width:0.850394; stroke-linejoin:round; stroke-linecap:round; fill:none" d="M -489.912 836.89C -490.325 835.387 -490.809 833.183 -491.363 830.278C -491.917 827.374 -492.542 823.768 -493.353 818.446C -494.163 813.123 -495.16 806.083 -496.055 797.742C -496.951 789.402 -497.744 779.76 -497.784 771.062C -497.825 762.364 -497.112 754.61 -495.051 748.496C -492.99 742.383 -489.581 737.91 -484.139 733.968C -478.696 730.026 -471.221 726.616 -462.018 723.421C -452.815 720.226 -441.884 717.247 -430.046 714.508C -418.207 711.769 -405.462 709.271 -392.892 707.227C -380.322 705.183 -367.929 703.594 -356.709 702.596C -345.489 701.599 -335.443 701.193 -327.213 701.256C -318.983 701.319 -312.568 701.851 -307.858 702.162C -303.148 702.474 -300.144 702.565 -297.94 701.221C -295.736 699.878 -294.333 697.1 -292.878 692.106C -291.423 687.112 -289.917 679.902 -288.096 670.727C -286.275 661.553 -284.14 650.414 -281.773 638.167C -279.407 625.92 -276.809 612.564 -274.251 599.244C -271.694 585.924 -269.178 572.639 -266.94 560.436C -264.703 548.232 -262.744 537.111 -261.154 527.729C -259.564 518.348 -258.344 510.707 -257.085 504.591C -255.827 498.476 -254.53 493.888 -252.472 489.669C -250.413 485.451 -247.592 481.603 -244.357 477.935C -241.121 474.266 -237.47 470.776 -233.458 467.527C -229.446 464.278 -225.074 461.27 -219.344 458.771C -213.615 456.272 -206.528 454.284 -198.152 452.809C -189.776 451.335 -180.111 450.375 -169.673 449.869C -159.236 449.364 -148.026 449.312 -136.871 449.615C -125.716 449.917 -114.617 450.573 -104.39 451.538C -94.1621 452.504 -84.8064 453.781 -76.8954 455.441C -68.9844 457.102 -62.5182 459.148 -57.5218 461.864C -52.5253 464.579 -48.9986 467.965 -46.6014 472.388C -44.2041 476.811 -42.9363 482.271 -42.3009 489.081C -41.6655 495.891 -41.6624 504.051 -41.8663 513.661C -42.0701 523.272 -42.4807 534.334 -42.8649 546.669C -43.249 559.004 -43.6066 572.614 -43.8324 587.137C -44.0583 601.659 -44.1522 617.095 -44.1171 632.956C -44.0819 648.816 -43.9175 665.1 -43.6971 681.261C -43.4767 697.422 -43.2003 713.458 -42.9819 728.828C -42.7635 744.198 -42.603 758.901 -42.6027 771.222C -42.6024 783.543 -42.7623 793.482 -43.0277 801.514C -43.2931 809.547 -43.6641 815.673 -44.1275 821.33C -44.591 826.986 -45.1468 832.173 -45.7951 836.89"/>
</g>
</svg>